<svg width="82" height="49" viewBox="0 0 82 49" fill="none" xmlns="http://www.w3.org/2000/svg">
	<path d="M14.8335 46.7345H12.729C10.173 46.7345 8.33011 46.0462 7.20261 44.6694C6.0751 43.2927 5.51251 40.7363 5.51251 37.0047V34.446C5.51251 31.1224 5.07725 28.807 4.20673 27.5021C3.33621 26.1949 1.9332 25.5436 0 25.5436V21.1979C1.93551 21.1979 3.33853 20.5443 4.20673 19.2394C5.07725 17.9322 5.51251 15.6191 5.51251 12.2955V9.70893C5.51251 5.99363 6.0751 3.44877 7.20261 2.07204C8.33011 0.688363 10.173 0 12.729 0H14.8335V3.49281H14.0348C12.384 3.49281 11.2334 3.84742 10.5851 4.55896C9.93687 5.2705 9.61274 6.96707 9.61274 9.65099V11.3568C9.61274 15.0351 9.18674 17.7468 8.33475 19.4874C7.48275 21.2303 6.03574 22.5167 3.99373 23.3534C6.03574 24.2063 7.48275 25.5042 8.33475 27.2448C9.18674 28.9877 9.61274 31.6971 9.61274 35.3754V37.0812C9.61274 39.7651 9.93687 41.4617 10.5851 42.1732C11.2334 42.8848 12.3817 43.2394 14.0348 43.2394H14.8335V46.7322V46.7345Z" fill="#8A8780" />
	<path d="M66.766 44.4122H67.5856C69.2803 44.4122 70.4611 44.046 71.1278 43.3159C71.7946 42.5858 72.1257 40.8429 72.1257 38.0871V36.3349C72.1257 32.557 72.5633 29.7734 73.4384 27.9842C74.3136 26.1949 75.7999 24.8622 77.8975 23.9861C75.7999 23.1285 74.3136 21.8051 73.4384 20.0158C72.5633 18.2266 72.1257 15.443 72.1257 11.6651V9.91289C72.1257 7.15712 71.7923 5.4142 71.1278 4.68411C70.4634 3.95403 69.2826 3.58783 67.5856 3.58783H66.766V0H68.9261C71.5515 0 73.443 0.706905 74.6007 2.12303C75.7583 3.53684 76.3371 6.15355 76.3371 9.96852V12.6246C76.3371 16.0386 76.7839 18.4166 77.6776 19.7586C78.5712 21.1005 80.0113 21.7704 82.0001 21.7704V26.2343C80.0136 26.2343 78.5712 26.9041 77.6776 28.2461C76.7839 29.588 76.3371 31.966 76.3371 35.38V38.0083C76.3371 41.8418 75.7583 44.4655 74.6007 45.8816C73.443 47.2954 71.5515 48.0046 68.9261 48.0046H66.766V44.4168V44.4122Z" fill="#8A8780" />
	<path d="M20.265 13.6398L27.2662 23.0266L34.2674 13.6398H37.68V34.5109H33.2579V22.3915L28.2802 29.0712H26.2591L21.2559 22.3405V34.5086H16.8339V13.6398H20.2719H20.265Z" fill="#086FFF" />
	<path d="M46.4986 31.3495V34.5109H42.0765V31.3495H46.4986Z" fill="#71CD91" />
	<path d="M62.3416 13.6398H66.7636V34.5109H62.3416V34.3092C61.1956 34.8655 59.9315 35.1436 58.5516 35.1436C56.1091 35.1436 54.0231 34.2791 52.2959 32.5501C50.5688 30.8211 49.7052 28.7351 49.7052 26.2876C49.7052 23.8401 50.5688 21.7541 52.2959 20.0251C54.0231 18.2961 56.1067 17.4316 58.5516 17.4316C59.9338 17.4316 61.1956 17.7097 62.3416 18.266V13.6352V13.6398ZM62.3416 23.9861C62.1564 23.6987 61.9364 23.4206 61.6841 23.1517C60.8251 22.2918 59.781 21.8608 58.5493 21.8608C57.3176 21.8608 56.2966 22.2965 55.4284 23.1633C54.5602 24.0301 54.1272 25.0731 54.1272 26.2876C54.1272 27.5021 54.5602 28.5636 55.4284 29.4258C56.2966 30.2857 57.3361 30.7168 58.5493 30.7168C59.7625 30.7168 60.8228 30.2857 61.6841 29.4258C61.9364 29.1732 62.1564 28.895 62.3416 28.5914V23.9861Z" fill="#71CD91" />
</svg>
