<svg width="23" height="23" viewBox="0 0 23 23" fill="none" xmlns="http://www.w3.org/2000/svg">
	<path d="M16.321 12.0085L9.13355 19.196C9.06677 19.2628 8.98749 19.3158 8.90024 19.3519C8.81299 19.3881 8.71947 19.4067 8.62503 19.4067C8.53059 19.4067 8.43708 19.3881 8.34983 19.3519C8.26258 19.3158 8.1833 19.2628 8.11652 19.196C8.04974 19.1292 7.99677 19.05 7.96063 18.9627C7.92448 18.8755 7.90588 18.7819 7.90588 18.6875C7.90588 18.5931 7.92448 18.4995 7.96063 18.4123C7.99677 18.325 8.04974 18.2458 8.11652 18.179L14.7964 11.5L8.11652 4.82102C7.98165 4.68615 7.90588 4.50323 7.90588 4.3125C7.90588 4.12177 7.98165 3.93885 8.11652 3.80399C8.25138 3.66912 8.4343 3.59335 8.62503 3.59335C8.81576 3.59335 8.99868 3.66912 9.13355 3.80399L16.321 10.9915C16.3879 11.0582 16.4409 11.1375 16.4771 11.2248C16.5132 11.312 16.5318 11.4055 16.5318 11.5C16.5318 11.5945 16.5132 11.688 16.4771 11.7752C16.4409 11.8625 16.3879 11.9418 16.321 12.0085Z" fill="#71CD91" />
</svg>
